<svg xmlns="http://www.w3.org/2000/svg" version="1.1" xmlnsXlink="http://www.w3.org/1999/xlink" xmlnsSvgjs="http://svgjs.dev/svgjs" width="430" height="932" preserveAspectRatio="none" viewBox="0 0 430 932"><g mask="url(&quot;#SvgjsMask1737&quot;)" fill="none"><rect width="430" height="932" x="0" y="0" fill="rgba(30, 32, 33, 1)"></rect><use xlinkHref="#SvgjsG1740" transform="translate(0, 0)" fill="rgba(43, 43, 43, 1)"></use><use xlinkHref="#SvgjsG1740" transform="translate(0, 540)" fill="rgba(43, 43, 43, 1)"></use></g><defs><mask id="SvgjsMask1737"><rect width="430" height="932" fill="#ffffff"></rect></mask><g id="SvgjsG1739"><path d="M13.51 4.9L7.52 1.72C3.77-0.28 2.73 2.32 2.73 2.32l12.95 6.89S17.26 6.9 13.51 4.9zM2.47 11.23l5.98 3.18c3.76 2 4.79-0.61 4.79-0.61L0.29 6.91s-1.57 2.32 2.18 4.32z m10.84 1.08a1.26 1.26 0 0 0 1.71-0.52c0.32-0.61 0.09-1.37-0.53-1.7L2.61 3.78C2 3.45 1.24 3.68 0.91 4.29a1.26 1.26 0 0 0 0.52 1.7l11.88 6.32z" fill-rule="evenodd"></path></g><g id="SvgjsG1738"><path d="M13.34 6.58l-6.83 9.67L2.07 13.88 6.27 2.83l5.42 2.88L14.76 2.53 15.28 3.03l-2.93 3.03 0.99 0.52z" fill-rule="evenodd"></path></g><g id="SvgjsG1740"><use xlinkHref="#SvgjsG1738" transform="translate(0, 0) scale(1.8)" fill="rgba(43, 43, 43, 1)"></use><use xlinkHref="#SvgjsG1739" transform="translate(0, 54) scale(1.8)" fill="rgba(43, 43, 43, 1)"></use><use xlinkHref="#SvgjsG1739" transform="translate(0, 108) scale(1.8)" fill="rgba(43, 43, 43, 1)"></use><use xlinkHref="#SvgjsG1739" transform="translate(0, 162) scale(1.8)" fill="rgba(43, 43, 43, 1)"></use><use xlinkHref="#SvgjsG1738" transform="translate(0, 216) scale(1.8)" fill="rgba(43, 43, 43, 1)"></use><use xlinkHref="#SvgjsG1739" transform="translate(0, 270) scale(1.8)" fill="rgba(43, 43, 43, 1)"></use><use xlinkHref="#SvgjsG1739" transform="translate(0, 324) scale(1.8)" fill="rgba(43, 43, 43, 1)"></use><use xlinkHref="#SvgjsG1738" transform="translate(0, 378) scale(1.8)" fill="rgba(43, 43, 43, 1)"></use><use xlinkHref="#SvgjsG1738" transform="translate(0, 432) scale(1.8)" fill="rgba(43, 43, 43, 1)"></use><use xlinkHref="#SvgjsG1739" transform="translate(0, 486) scale(1.8)" fill="rgba(43, 43, 43, 1)"></use><use xlinkHref="#SvgjsG1739" transform="translate(54, 0) scale(1.8)" fill="rgba(43, 43, 43, 1)"></use><use xlinkHref="#SvgjsG1738" transform="translate(54, 54) scale(1.8)" fill="rgba(43, 43, 43, 1)"></use><use xlinkHref="#SvgjsG1739" transform="translate(54, 108) scale(1.8)" fill="rgba(43, 43, 43, 1)"></use><use xlinkHref="#SvgjsG1739" transform="translate(54, 162) scale(1.8)" fill="rgba(43, 43, 43, 1)"></use><use xlinkHref="#SvgjsG1738" transform="translate(54, 216) scale(1.8)" fill="rgba(43, 43, 43, 1)"></use><use xlinkHref="#SvgjsG1738" transform="translate(54, 270) scale(1.8)" fill="rgba(43, 43, 43, 1)"></use><use xlinkHref="#SvgjsG1738" transform="translate(54, 324) scale(1.8)" fill="rgba(43, 43, 43, 1)"></use><use xlinkHref="#SvgjsG1738" transform="translate(54, 378) scale(1.8)" fill="rgba(43, 43, 43, 1)"></use><use xlinkHref="#SvgjsG1739" transform="translate(54, 432) scale(1.8)" fill="rgba(43, 43, 43, 1)"></use><use xlinkHref="#SvgjsG1739" transform="translate(54, 486) scale(1.8)" fill="rgba(43, 43, 43, 1)"></use><use xlinkHref="#SvgjsG1738" transform="translate(108, 0) scale(1.8)" fill="rgba(43, 43, 43, 1)"></use><use xlinkHref="#SvgjsG1739" transform="translate(108, 54) scale(1.8)" fill="rgba(43, 43, 43, 1)"></use><use xlinkHref="#SvgjsG1738" transform="translate(108, 108) scale(1.8)" fill="rgba(43, 43, 43, 1)"></use><use xlinkHref="#SvgjsG1739" transform="translate(108, 162) scale(1.8)" fill="rgba(43, 43, 43, 1)"></use><use xlinkHref="#SvgjsG1738" transform="translate(108, 216) scale(1.8)" fill="rgba(43, 43, 43, 1)"></use><use xlinkHref="#SvgjsG1739" transform="translate(108, 270) scale(1.8)" fill="rgba(43, 43, 43, 1)"></use><use xlinkHref="#SvgjsG1739" transform="translate(108, 324) scale(1.8)" fill="rgba(43, 43, 43, 1)"></use><use xlinkHref="#SvgjsG1738" transform="translate(108, 378) scale(1.8)" fill="rgba(43, 43, 43, 1)"></use><use xlinkHref="#SvgjsG1739" transform="translate(108, 432) scale(1.8)" fill="rgba(43, 43, 43, 1)"></use><use xlinkHref="#SvgjsG1739" transform="translate(108, 486) scale(1.8)" fill="rgba(43, 43, 43, 1)"></use><use xlinkHref="#SvgjsG1739" transform="translate(162, 0) scale(1.8)" fill="rgba(43, 43, 43, 1)"></use><use xlinkHref="#SvgjsG1738" transform="translate(162, 54) scale(1.8)" fill="rgba(43, 43, 43, 1)"></use><use xlinkHref="#SvgjsG1739" transform="translate(162, 108) scale(1.8)" fill="rgba(43, 43, 43, 1)"></use><use xlinkHref="#SvgjsG1739" transform="translate(162, 162) scale(1.8)" fill="rgba(43, 43, 43, 1)"></use><use xlinkHref="#SvgjsG1738" transform="translate(162, 216) scale(1.8)" fill="rgba(43, 43, 43, 1)"></use><use xlinkHref="#SvgjsG1738" transform="translate(162, 270) scale(1.8)" fill="rgba(43, 43, 43, 1)"></use><use xlinkHref="#SvgjsG1739" transform="translate(162, 324) scale(1.8)" fill="rgba(43, 43, 43, 1)"></use><use xlinkHref="#SvgjsG1739" transform="translate(162, 378) scale(1.8)" fill="rgba(43, 43, 43, 1)"></use><use xlinkHref="#SvgjsG1739" transform="translate(162, 432) scale(1.8)" fill="rgba(43, 43, 43, 1)"></use><use xlinkHref="#SvgjsG1739" transform="translate(162, 486) scale(1.8)" fill="rgba(43, 43, 43, 1)"></use><use xlinkHref="#SvgjsG1739" transform="translate(216, 0) scale(1.8)" fill="rgba(43, 43, 43, 1)"></use><use xlinkHref="#SvgjsG1739" transform="translate(216, 54) scale(1.8)" fill="rgba(43, 43, 43, 1)"></use><use xlinkHref="#SvgjsG1739" transform="translate(216, 108) scale(1.8)" fill="rgba(43, 43, 43, 1)"></use><use xlinkHref="#SvgjsG1739" transform="translate(216, 162) scale(1.8)" fill="rgba(43, 43, 43, 1)"></use><use xlinkHref="#SvgjsG1739" transform="translate(216, 216) scale(1.8)" fill="rgba(43, 43, 43, 1)"></use><use xlinkHref="#SvgjsG1739" transform="translate(216, 270) scale(1.8)" fill="rgba(43, 43, 43, 1)"></use><use xlinkHref="#SvgjsG1739" transform="translate(216, 324) scale(1.8)" fill="rgba(43, 43, 43, 1)"></use><use xlinkHref="#SvgjsG1739" transform="translate(216, 378) scale(1.8)" fill="rgba(43, 43, 43, 1)"></use><use xlinkHref="#SvgjsG1738" transform="translate(216, 432) scale(1.8)" fill="rgba(43, 43, 43, 1)"></use><use xlinkHref="#SvgjsG1739" transform="translate(216, 486) scale(1.8)" fill="rgba(43, 43, 43, 1)"></use><use xlinkHref="#SvgjsG1738" transform="translate(270, 0) scale(1.8)" fill="rgba(43, 43, 43, 1)"></use><use xlinkHref="#SvgjsG1739" transform="translate(270, 54) scale(1.8)" fill="rgba(43, 43, 43, 1)"></use><use xlinkHref="#SvgjsG1738" transform="translate(270, 108) scale(1.8)" fill="rgba(43, 43, 43, 1)"></use><use xlinkHref="#SvgjsG1739" transform="translate(270, 162) scale(1.8)" fill="rgba(43, 43, 43, 1)"></use><use xlinkHref="#SvgjsG1739" transform="translate(270, 216) scale(1.8)" fill="rgba(43, 43, 43, 1)"></use><use xlinkHref="#SvgjsG1739" transform="translate(270, 270) scale(1.8)" fill="rgba(43, 43, 43, 1)"></use><use xlinkHref="#SvgjsG1738" transform="translate(270, 324) scale(1.8)" fill="rgba(43, 43, 43, 1)"></use><use xlinkHref="#SvgjsG1738" transform="translate(270, 378) scale(1.8)" fill="rgba(43, 43, 43, 1)"></use><use xlinkHref="#SvgjsG1739" transform="translate(270, 432) scale(1.8)" fill="rgba(43, 43, 43, 1)"></use><use xlinkHref="#SvgjsG1738" transform="translate(270, 486) scale(1.8)" fill="rgba(43, 43, 43, 1)"></use><use xlinkHref="#SvgjsG1739" transform="translate(324, 0) scale(1.8)" fill="rgba(43, 43, 43, 1)"></use><use xlinkHref="#SvgjsG1738" transform="translate(324, 54) scale(1.8)" fill="rgba(43, 43, 43, 1)"></use><use xlinkHref="#SvgjsG1738" transform="translate(324, 108) scale(1.8)" fill="rgba(43, 43, 43, 1)"></use><use xlinkHref="#SvgjsG1739" transform="translate(324, 162) scale(1.8)" fill="rgba(43, 43, 43, 1)"></use><use xlinkHref="#SvgjsG1738" transform="translate(324, 216) scale(1.8)" fill="rgba(43, 43, 43, 1)"></use><use xlinkHref="#SvgjsG1738" transform="translate(324, 270) scale(1.8)" fill="rgba(43, 43, 43, 1)"></use><use xlinkHref="#SvgjsG1738" transform="translate(324, 324) scale(1.8)" fill="rgba(43, 43, 43, 1)"></use><use xlinkHref="#SvgjsG1738" transform="translate(324, 378) scale(1.8)" fill="rgba(43, 43, 43, 1)"></use><use xlinkHref="#SvgjsG1739" transform="translate(324, 432) scale(1.8)" fill="rgba(43, 43, 43, 1)"></use><use xlinkHref="#SvgjsG1738" transform="translate(324, 486) scale(1.8)" fill="rgba(43, 43, 43, 1)"></use><use xlinkHref="#SvgjsG1739" transform="translate(378, 0) scale(1.8)" fill="rgba(43, 43, 43, 1)"></use><use xlinkHref="#SvgjsG1739" transform="translate(378, 54) scale(1.8)" fill="rgba(43, 43, 43, 1)"></use><use xlinkHref="#SvgjsG1739" transform="translate(378, 108) scale(1.8)" fill="rgba(43, 43, 43, 1)"></use><use xlinkHref="#SvgjsG1738" transform="translate(378, 162) scale(1.8)" fill="rgba(43, 43, 43, 1)"></use><use xlinkHref="#SvgjsG1739" transform="translate(378, 216) scale(1.8)" fill="rgba(43, 43, 43, 1)"></use><use xlinkHref="#SvgjsG1739" transform="translate(378, 270) scale(1.8)" fill="rgba(43, 43, 43, 1)"></use><use xlinkHref="#SvgjsG1738" transform="translate(378, 324) scale(1.8)" fill="rgba(43, 43, 43, 1)"></use><use xlinkHref="#SvgjsG1738" transform="translate(378, 378) scale(1.8)" fill="rgba(43, 43, 43, 1)"></use><use xlinkHref="#SvgjsG1739" transform="translate(378, 432) scale(1.8)" fill="rgba(43, 43, 43, 1)"></use><use xlinkHref="#SvgjsG1739" transform="translate(378, 486) scale(1.8)" fill="rgba(43, 43, 43, 1)"></use></g></defs></svg>