<svg xmlns="http://www.w3.org/2000/svg" version="1.1" xmlnsXlink="http://www.w3.org/1999/xlink" xmlnsSvgjs="http://svgjs.dev/svgjs" width="412" height="932" preserveAspectRatio="none" viewBox="0 0 412 932">
    <g mask="url(&quot;#SvgjsMask1362&quot;)" fill="none">
        <use xlinkHref="#SvgjsSymbol1369" x="0" y="0"></use>
        <use xlinkHref="#SvgjsSymbol1369" x="0" y="720"></use>
    </g>
    <defs>
        <mask id="SvgjsMask1362">
            <rect width="412" height="932" fill="#ffffff"></rect>
        </mask>
        <path d="M-1 0 a1 1 0 1 0 2 0 a1 1 0 1 0 -2 0z" id="SvgjsPath1366"></path>
        <path d="M-3 0 a3 3 0 1 0 6 0 a3 3 0 1 0 -6 0z" id="SvgjsPath1367"></path>
        <path d="M-5 0 a5 5 0 1 0 10 0 a5 5 0 1 0 -10 0z" id="SvgjsPath1365"></path>
        <path d="M2 -2 L-2 2z" id="SvgjsPath1364"></path>
        <path d="M6 -6 L-6 6z" id="SvgjsPath1363"></path>
        <path d="M30 -30 L-30 30z" id="SvgjsPath1368"></path>
    </defs>
    <symbol id="SvgjsSymbol1369">
        <use xlinkHref="#SvgjsPath1363" x="30" y="30" stroke="rgba(193, 105, 23, 1)"></use>
        <use xlinkHref="#SvgjsPath1364" x="30" y="90" stroke="rgba(193, 105, 23, 1)"></use>
        <use xlinkHref="#SvgjsPath1364" x="30" y="150" stroke="rgba(193, 105, 23, 1)"></use>
        <use xlinkHref="#SvgjsPath1363" x="30" y="210" stroke="rgba(193, 105, 23, 1)"></use>
        <use xlinkHref="#SvgjsPath1363" x="30" y="270" stroke="rgba(193, 105, 23, 1)"></use>
        <use xlinkHref="#SvgjsPath1365" x="30" y="330" stroke="rgba(193, 105, 23, 1)"></use>
        <use xlinkHref="#SvgjsPath1365" x="30" y="390" stroke="rgba(193, 105, 23, 1)"></use>
        <use xlinkHref="#SvgjsPath1363" x="30" y="450" stroke="rgba(193, 105, 23, 1)"></use>
        <use xlinkHref="#SvgjsPath1364" x="30" y="510" stroke="rgba(193, 105, 23, 1)"></use>
        <use xlinkHref="#SvgjsPath1366" x="30" y="570" stroke="rgba(193, 105, 23, 1)"></use>
        <use xlinkHref="#SvgjsPath1363" x="30" y="630" stroke="rgba(193, 105, 23, 1)"></use>
        <use xlinkHref="#SvgjsPath1365" x="30" y="690" stroke="rgba(193, 105, 23, 1)"></use>
        <use xlinkHref="#SvgjsPath1367" x="90" y="30" stroke="rgba(193, 105, 23, 1)"></use>
        <use xlinkHref="#SvgjsPath1364" x="90" y="90" stroke="rgba(193, 105, 23, 1)"></use>
        <use xlinkHref="#SvgjsPath1365" x="90" y="150" stroke="rgba(193, 105, 23, 1)"></use>
        <use xlinkHref="#SvgjsPath1365" x="90" y="210" stroke="rgba(193, 105, 23, 1)"></use>
        <use xlinkHref="#SvgjsPath1363" x="90" y="270" stroke="rgba(193, 105, 23, 1)"></use>
        <use xlinkHref="#SvgjsPath1366" x="90" y="330" stroke="rgba(193, 105, 23, 1)"></use>
        <use xlinkHref="#SvgjsPath1365" x="90" y="390" stroke="rgba(193, 105, 23, 1)"></use>
        <use xlinkHref="#SvgjsPath1363" x="90" y="450" stroke="rgba(193, 105, 23, 1)"></use>
        <use xlinkHref="#SvgjsPath1363" x="90" y="510" stroke="rgba(193, 105, 23, 1)"></use>
        <use xlinkHref="#SvgjsPath1363" x="90" y="570" stroke="rgba(193, 105, 23, 1)"></use>
        <use xlinkHref="#SvgjsPath1365" x="90" y="630" stroke="rgba(193, 105, 23, 1)"></use>
        <use xlinkHref="#SvgjsPath1367" x="90" y="690" stroke="rgba(193, 105, 23, 1)"></use>
        <use xlinkHref="#SvgjsPath1367" x="150" y="30" stroke="rgba(193, 105, 23, 1)"></use>
        <use xlinkHref="#SvgjsPath1365" x="150" y="90" stroke="rgba(193, 105, 23, 1)"></use>
        <use xlinkHref="#SvgjsPath1363" x="150" y="150" stroke="rgba(193, 105, 23, 1)"></use>
        <use xlinkHref="#SvgjsPath1363" x="150" y="210" stroke="rgba(193, 105, 23, 1)"></use>
        <use xlinkHref="#SvgjsPath1364" x="150" y="270" stroke="rgba(193, 105, 23, 1)"></use>
        <use xlinkHref="#SvgjsPath1363" x="150" y="330" stroke="rgba(193, 105, 23, 1)"></use>
        <use xlinkHref="#SvgjsPath1364" x="150" y="390" stroke="rgba(193, 105, 23, 1)"></use>
        <use xlinkHref="#SvgjsPath1363" x="150" y="450" stroke="rgba(193, 105, 23, 1)"></use>
        <use xlinkHref="#SvgjsPath1364" x="150" y="510" stroke="rgba(193, 105, 23, 1)"></use>
        <use xlinkHref="#SvgjsPath1367" x="150" y="570" stroke="rgba(193, 105, 23, 1)"></use>
        <use xlinkHref="#SvgjsPath1363" x="150" y="630" stroke="rgba(193, 105, 23, 1)"></use>
        <use xlinkHref="#SvgjsPath1368" x="150" y="690" stroke="rgba(193, 105, 23, 1)" stroke-width="3"></use>
        <use xlinkHref="#SvgjsPath1363" x="210" y="30" stroke="rgba(193, 105, 23, 1)"></use>
        <use xlinkHref="#SvgjsPath1368" x="210" y="90" stroke="rgba(193, 105, 23, 1)" stroke-width="3"></use>
        <use xlinkHref="#SvgjsPath1363" x="210" y="150" stroke="rgba(193, 105, 23, 1)"></use>
        <use xlinkHref="#SvgjsPath1366" x="210" y="210" stroke="rgba(193, 105, 23, 1)"></use>
        <use xlinkHref="#SvgjsPath1363" x="210" y="270" stroke="rgba(193, 105, 23, 1)"></use>
        <use xlinkHref="#SvgjsPath1366" x="210" y="330" stroke="rgba(193, 105, 23, 1)"></use>
        <use xlinkHref="#SvgjsPath1363" x="210" y="390" stroke="rgba(193, 105, 23, 1)"></use>
        <use xlinkHref="#SvgjsPath1365" x="210" y="450" stroke="rgba(193, 105, 23, 1)"></use>
        <use xlinkHref="#SvgjsPath1366" x="210" y="510" stroke="rgba(193, 105, 23, 1)"></use>
        <use xlinkHref="#SvgjsPath1365" x="210" y="570" stroke="rgba(193, 105, 23, 1)"></use>
        <use xlinkHref="#SvgjsPath1364" x="210" y="630" stroke="rgba(193, 105, 23, 1)"></use>
        <use xlinkHref="#SvgjsPath1364" x="210" y="690" stroke="rgba(193, 105, 23, 1)"></use>
        <use xlinkHref="#SvgjsPath1364" x="270" y="30" stroke="rgba(193, 105, 23, 1)"></use>
        <use xlinkHref="#SvgjsPath1364" x="270" y="90" stroke="rgba(193, 105, 23, 1)"></use>
        <use xlinkHref="#SvgjsPath1367" x="270" y="150" stroke="rgba(193, 105, 23, 1)"></use>
        <use xlinkHref="#SvgjsPath1363" x="270" y="210" stroke="rgba(193, 105, 23, 1)"></use>
        <use xlinkHref="#SvgjsPath1368" x="270" y="270" stroke="rgba(193, 105, 23, 1)" stroke-width="3"></use>
        <use xlinkHref="#SvgjsPath1367" x="270" y="330" stroke="rgba(193, 105, 23, 1)"></use>
        <use xlinkHref="#SvgjsPath1367" x="270" y="390" stroke="rgba(193, 105, 23, 1)"></use>
        <use xlinkHref="#SvgjsPath1365" x="270" y="450" stroke="rgba(193, 105, 23, 1)"></use>
        <use xlinkHref="#SvgjsPath1364" x="270" y="510" stroke="rgba(193, 105, 23, 1)"></use>
        <use xlinkHref="#SvgjsPath1363" x="270" y="570" stroke="rgba(193, 105, 23, 1)"></use>
        <use xlinkHref="#SvgjsPath1365" x="270" y="630" stroke="rgba(193, 105, 23, 1)"></use>
        <use xlinkHref="#SvgjsPath1365" x="270" y="690" stroke="rgba(193, 105, 23, 1)"></use>
        <use xlinkHref="#SvgjsPath1365" x="330" y="30" stroke="rgba(193, 105, 23, 1)"></use>
        <use xlinkHref="#SvgjsPath1368" x="330" y="90" stroke="rgba(193, 105, 23, 1)" stroke-width="3"></use>
        <use xlinkHref="#SvgjsPath1364" x="330" y="150" stroke="rgba(193, 105, 23, 1)"></use>
        <use xlinkHref="#SvgjsPath1365" x="330" y="210" stroke="rgba(193, 105, 23, 1)"></use>
        <use xlinkHref="#SvgjsPath1365" x="330" y="270" stroke="rgba(193, 105, 23, 1)"></use>
        <use xlinkHref="#SvgjsPath1365" x="330" y="330" stroke="rgba(193, 105, 23, 1)"></use>
        <use xlinkHref="#SvgjsPath1364" x="330" y="390" stroke="rgba(193, 105, 23, 1)"></use>
        <use xlinkHref="#SvgjsPath1365" x="330" y="450" stroke="rgba(193, 105, 23, 1)"></use>
        <use xlinkHref="#SvgjsPath1364" x="330" y="510" stroke="rgba(193, 105, 23, 1)"></use>
        <use xlinkHref="#SvgjsPath1363" x="330" y="570" stroke="rgba(193, 105, 23, 1)"></use>
        <use xlinkHref="#SvgjsPath1363" x="330" y="630" stroke="rgba(193, 105, 23, 1)"></use>
        <use xlinkHref="#SvgjsPath1365" x="330" y="690" stroke="rgba(193, 105, 23, 1)"></use>
        <use xlinkHref="#SvgjsPath1365" x="390" y="30" stroke="rgba(193, 105, 23, 1)"></use>
        <use xlinkHref="#SvgjsPath1364" x="390" y="90" stroke="rgba(193, 105, 23, 1)"></use>
        <use xlinkHref="#SvgjsPath1363" x="390" y="150" stroke="rgba(193, 105, 23, 1)"></use>
        <use xlinkHref="#SvgjsPath1363" x="390" y="210" stroke="rgba(193, 105, 23, 1)"></use>
        <use xlinkHref="#SvgjsPath1366" x="390" y="270" stroke="rgba(193, 105, 23, 1)"></use>
        <use xlinkHref="#SvgjsPath1365" x="390" y="330" stroke="rgba(193, 105, 23, 1)"></use>
        <use xlinkHref="#SvgjsPath1363" x="390" y="390" stroke="rgba(193, 105, 23, 1)"></use>
        <use xlinkHref="#SvgjsPath1365" x="390" y="450" stroke="rgba(193, 105, 23, 1)"></use>
        <use xlinkHref="#SvgjsPath1364" x="390" y="510" stroke="rgba(193, 105, 23, 1)"></use>
        <use xlinkHref="#SvgjsPath1365" x="390" y="570" stroke="rgba(193, 105, 23, 1)"></use>
        <use xlinkHref="#SvgjsPath1363" x="390" y="630" stroke="rgba(193, 105, 23, 1)"></use>
        <use xlinkHref="#SvgjsPath1365" x="390" y="690" stroke="rgba(193, 105, 23, 1)"></use>
    </symbol>
</svg>